<?xml version="1.0" encoding="utf-8" standalone="no"?>
<!DOCTYPE svg PUBLIC "-//W3C//DTD SVG 1.1//EN"
  "http://www.w3.org/Graphics/SVG/1.1/DTD/svg11.dtd">
<svg xmlns:xlink="http://www.w3.org/1999/xlink" width="352.921875pt" height="352.890658pt" viewBox="0 0 352.921875 352.890658" xmlns="http://www.w3.org/2000/svg" version="1.1">
 <metadata>
  <rdf:RDF xmlns:dc="http://purl.org/dc/elements/1.1/" xmlns:cc="http://creativecommons.org/ns#" xmlns:rdf="http://www.w3.org/1999/02/22-rdf-syntax-ns#">
   <cc:Work>
    <dc:type rdf:resource="http://purl.org/dc/dcmitype/StillImage"/>
    <dc:date>2025-11-12T22:03:18.806030</dc:date>
    <dc:format>image/svg+xml</dc:format>
    <dc:creator>
     <cc:Agent>
      <dc:title>Matplotlib v3.9.2, https://matplotlib.org/</dc:title>
     </cc:Agent>
    </dc:creator>
   </cc:Work>
  </rdf:RDF>
 </metadata>
 <defs>
  <style type="text/css">*{stroke-linejoin: round; stroke-linecap: butt}</style>
 </defs>
 <g id="figure_1">
  <g id="patch_1">
   <path d="M 0 352.890658 
L 352.921875 352.890658 
L 352.921875 -0 
L 0 -0 
z
" style="fill: #ffffff"/>
  </g>
  <g id="axes_1">
   <g id="patch_2">
    <path d="M 55.071875 304.931655 
L 345.721875 304.931655 
L 345.721875 30.877187 
L 55.071875 30.877187 
z
" style="fill: #ffffff"/>
   </g>
   <g id="PathCollection_1">
    <defs>
     <path id="mfc51bdb7d7" d="M 0 3.162278 
C 0.838646 3.162278 1.643056 2.82908 2.236068 2.236068 
C 2.82908 1.643056 3.162278 0.838646 3.162278 0 
C 3.162278 -0.838646 2.82908 -1.643056 2.236068 -2.236068 
C 1.643056 -2.82908 0.838646 -3.162278 0 -3.162278 
C -0.838646 -3.162278 -1.643056 -2.82908 -2.236068 -2.236068 
C -2.82908 -1.643056 -3.162278 -0.838646 -3.162278 0 
C -3.162278 0.838646 -2.82908 1.643056 -2.236068 2.236068 
C -1.643056 2.82908 -0.838646 3.162278 0 3.162278 
z
" style="stroke: #000000; stroke-opacity: 0.6; stroke-width: 0.8"/>
    </defs>
    <g clip-path="url(#pf4de6d2f78)">
     <use xlink:href="#mfc51bdb7d7" x="79.868301" y="213.268386" style="fill-opacity: 0.6; stroke: #000000; stroke-opacity: 0.6; stroke-width: 0.8"/>
     <use xlink:href="#mfc51bdb7d7" x="79.886884" y="213.580166" style="fill-opacity: 0.6; stroke: #000000; stroke-opacity: 0.6; stroke-width: 0.8"/>
     <use xlink:href="#mfc51bdb7d7" x="78.872058" y="213.580166" style="fill-opacity: 0.6; stroke: #000000; stroke-opacity: 0.6; stroke-width: 0.8"/>
     <use xlink:href="#mfc51bdb7d7" x="83.100386" y="297.448939" style="fill-opacity: 0.6; stroke: #000000; stroke-opacity: 0.6; stroke-width: 0.8"/>
     <use xlink:href="#mfc51bdb7d7" x="83.540838" y="215.139065" style="fill-opacity: 0.6; stroke: #000000; stroke-opacity: 0.6; stroke-width: 0.8"/>
     <use xlink:href="#mfc51bdb7d7" x="85.053693" y="213.580166" style="fill-opacity: 0.6; stroke: #000000; stroke-opacity: 0.6; stroke-width: 0.8"/>
     <use xlink:href="#mfc51bdb7d7" x="85.194931" y="213.580166" style="fill-opacity: 0.6; stroke: #000000; stroke-opacity: 0.6; stroke-width: 0.8"/>
     <use xlink:href="#mfc51bdb7d7" x="80.145402" y="213.580166" style="fill-opacity: 0.6; stroke: #000000; stroke-opacity: 0.6; stroke-width: 0.8"/>
     <use xlink:href="#mfc51bdb7d7" x="74.754518" y="213.268386" style="fill-opacity: 0.6; stroke: #000000; stroke-opacity: 0.6; stroke-width: 0.8"/>
     <use xlink:href="#mfc51bdb7d7" x="83.442469" y="213.580166" style="fill-opacity: 0.6; stroke: #000000; stroke-opacity: 0.6; stroke-width: 0.8"/>
    </g>
   </g>
   <g id="PathCollection_2">
    <g clip-path="url(#pf4de6d2f78)">
     <use xlink:href="#mfc51bdb7d7" x="129.325552" y="213.268386" style="fill-opacity: 0.6; stroke: #000000; stroke-opacity: 0.6; stroke-width: 0.8"/>
     <use xlink:href="#mfc51bdb7d7" x="124.277235" y="213.580166" style="fill-opacity: 0.6; stroke: #000000; stroke-opacity: 0.6; stroke-width: 0.8"/>
     <use xlink:href="#mfc51bdb7d7" x="121.831337" y="213.580166" style="fill-opacity: 0.6; stroke: #000000; stroke-opacity: 0.6; stroke-width: 0.8"/>
     <use xlink:href="#mfc51bdb7d7" x="135.537621" y="129.087833" style="fill-opacity: 0.6; stroke: #000000; stroke-opacity: 0.6; stroke-width: 0.8"/>
     <use xlink:href="#mfc51bdb7d7" x="126.72496" y="213.268386" style="fill-opacity: 0.6; stroke: #000000; stroke-opacity: 0.6; stroke-width: 0.8"/>
     <use xlink:href="#mfc51bdb7d7" x="124.57784" y="213.580166" style="fill-opacity: 0.6; stroke: #000000; stroke-opacity: 0.6; stroke-width: 0.8"/>
     <use xlink:href="#mfc51bdb7d7" x="132.318777" y="213.580166" style="fill-opacity: 0.6; stroke: #000000; stroke-opacity: 0.6; stroke-width: 0.8"/>
     <use xlink:href="#mfc51bdb7d7" x="132.533762" y="213.580166" style="fill-opacity: 0.6; stroke: #000000; stroke-opacity: 0.6; stroke-width: 0.8"/>
     <use xlink:href="#mfc51bdb7d7" x="127.953157" y="213.268386" style="fill-opacity: 0.6; stroke: #000000; stroke-opacity: 0.6; stroke-width: 0.8"/>
     <use xlink:href="#mfc51bdb7d7" x="127.160704" y="213.580166" style="fill-opacity: 0.6; stroke: #000000; stroke-opacity: 0.6; stroke-width: 0.8"/>
    </g>
   </g>
   <g id="PathCollection_3">
    <g clip-path="url(#pf4de6d2f78)">
     <use xlink:href="#mfc51bdb7d7" x="173.414094" y="213.268386" style="fill-opacity: 0.6; stroke: #000000; stroke-opacity: 0.6; stroke-width: 0.8"/>
     <use xlink:href="#mfc51bdb7d7" x="179.475439" y="213.580166" style="fill-opacity: 0.6; stroke: #000000; stroke-opacity: 0.6; stroke-width: 0.8"/>
     <use xlink:href="#mfc51bdb7d7" x="172.570841" y="213.580166" style="fill-opacity: 0.6; stroke: #000000; stroke-opacity: 0.6; stroke-width: 0.8"/>
     <use xlink:href="#mfc51bdb7d7" x="175.404738" y="215.139065" style="fill-opacity: 0.6; stroke: #000000; stroke-opacity: 0.6; stroke-width: 0.8"/>
     <use xlink:href="#mfc51bdb7d7" x="178.571653" y="213.268386" style="fill-opacity: 0.6; stroke: #000000; stroke-opacity: 0.6; stroke-width: 0.8"/>
     <use xlink:href="#mfc51bdb7d7" x="172.563583" y="213.580166" style="fill-opacity: 0.6; stroke: #000000; stroke-opacity: 0.6; stroke-width: 0.8"/>
     <use xlink:href="#mfc51bdb7d7" x="178.051356" y="213.580166" style="fill-opacity: 0.6; stroke: #000000; stroke-opacity: 0.6; stroke-width: 0.8"/>
     <use xlink:href="#mfc51bdb7d7" x="179.74889" y="213.580166" style="fill-opacity: 0.6; stroke: #000000; stroke-opacity: 0.6; stroke-width: 0.8"/>
     <use xlink:href="#mfc51bdb7d7" x="168.397222" y="213.268386" style="fill-opacity: 0.6; stroke: #000000; stroke-opacity: 0.6; stroke-width: 0.8"/>
     <use xlink:href="#mfc51bdb7d7" x="166.879988" y="213.580166" style="fill-opacity: 0.6; stroke: #000000; stroke-opacity: 0.6; stroke-width: 0.8"/>
    </g>
   </g>
   <g id="PathCollection_4">
    <g clip-path="url(#pf4de6d2f78)">
     <use xlink:href="#mfc51bdb7d7" x="233.364699" y="213.268386" style="fill-opacity: 0.6; stroke: #000000; stroke-opacity: 0.6; stroke-width: 0.8"/>
     <use xlink:href="#mfc51bdb7d7" x="231.253049" y="213.580166" style="fill-opacity: 0.6; stroke: #000000; stroke-opacity: 0.6; stroke-width: 0.8"/>
     <use xlink:href="#mfc51bdb7d7" x="218.896558" y="213.580166" style="fill-opacity: 0.6; stroke: #000000; stroke-opacity: 0.6; stroke-width: 0.8"/>
     <use xlink:href="#mfc51bdb7d7" x="216.295777" y="213.268386" style="fill-opacity: 0.6; stroke: #000000; stroke-opacity: 0.6; stroke-width: 0.8"/>
     <use xlink:href="#mfc51bdb7d7" x="222.071377" y="213.268386" style="fill-opacity: 0.6; stroke: #000000; stroke-opacity: 0.6; stroke-width: 0.8"/>
     <use xlink:href="#mfc51bdb7d7" x="234.052412" y="213.580166" style="fill-opacity: 0.6; stroke: #000000; stroke-opacity: 0.6; stroke-width: 0.8"/>
     <use xlink:href="#mfc51bdb7d7" x="224.819898" y="213.580166" style="fill-opacity: 0.6; stroke: #000000; stroke-opacity: 0.6; stroke-width: 0.8"/>
     <use xlink:href="#mfc51bdb7d7" x="224.487575" y="213.580166" style="fill-opacity: 0.6; stroke: #000000; stroke-opacity: 0.6; stroke-width: 0.8"/>
     <use xlink:href="#mfc51bdb7d7" x="223.631299" y="213.268386" style="fill-opacity: 0.6; stroke: #000000; stroke-opacity: 0.6; stroke-width: 0.8"/>
     <use xlink:href="#mfc51bdb7d7" x="232.253639" y="213.580166" style="fill-opacity: 0.6; stroke: #000000; stroke-opacity: 0.6; stroke-width: 0.8"/>
    </g>
   </g>
   <g id="PathCollection_5">
    <g clip-path="url(#pf4de6d2f78)">
     <use xlink:href="#mfc51bdb7d7" x="268.020311" y="215.139065" style="fill-opacity: 0.6; stroke: #000000; stroke-opacity: 0.6; stroke-width: 0.8"/>
     <use xlink:href="#mfc51bdb7d7" x="268.666494" y="213.580166" style="fill-opacity: 0.6; stroke: #000000; stroke-opacity: 0.6; stroke-width: 0.8"/>
     <use xlink:href="#mfc51bdb7d7" x="279.666846" y="213.580166" style="fill-opacity: 0.6; stroke: #000000; stroke-opacity: 0.6; stroke-width: 0.8"/>
     <use xlink:href="#mfc51bdb7d7" x="265.97774" y="213.268386" style="fill-opacity: 0.6; stroke: #000000; stroke-opacity: 0.6; stroke-width: 0.8"/>
     <use xlink:href="#mfc51bdb7d7" x="267.125473" y="213.268386" style="fill-opacity: 0.6; stroke: #000000; stroke-opacity: 0.6; stroke-width: 0.8"/>
     <use xlink:href="#mfc51bdb7d7" x="270.102049" y="213.580166" style="fill-opacity: 0.6; stroke: #000000; stroke-opacity: 0.6; stroke-width: 0.8"/>
     <use xlink:href="#mfc51bdb7d7" x="269.388202" y="213.580166" style="fill-opacity: 0.6; stroke: #000000; stroke-opacity: 0.6; stroke-width: 0.8"/>
     <use xlink:href="#mfc51bdb7d7" x="280.12078" y="213.580166" style="fill-opacity: 0.6; stroke: #000000; stroke-opacity: 0.6; stroke-width: 0.8"/>
     <use xlink:href="#mfc51bdb7d7" x="267.15199" y="215.139065" style="fill-opacity: 0.6; stroke: #000000; stroke-opacity: 0.6; stroke-width: 0.8"/>
     <use xlink:href="#mfc51bdb7d7" x="264.405341" y="213.580166" style="fill-opacity: 0.6; stroke: #000000; stroke-opacity: 0.6; stroke-width: 0.8"/>
    </g>
   </g>
   <g id="PathCollection_6">
    <g clip-path="url(#pf4de6d2f78)">
     <use xlink:href="#mfc51bdb7d7" x="319.770628" y="213.268386" style="fill-opacity: 0.6; stroke: #000000; stroke-opacity: 0.6; stroke-width: 0.8"/>
     <use xlink:href="#mfc51bdb7d7" x="319.087478" y="213.580166" style="fill-opacity: 0.6; stroke: #000000; stroke-opacity: 0.6; stroke-width: 0.8"/>
     <use xlink:href="#mfc51bdb7d7" x="322.785544" y="213.580166" style="fill-opacity: 0.6; stroke: #000000; stroke-opacity: 0.6; stroke-width: 0.8"/>
     <use xlink:href="#mfc51bdb7d7" x="321.515469" y="213.268386" style="fill-opacity: 0.6; stroke: #000000; stroke-opacity: 0.6; stroke-width: 0.8"/>
     <use xlink:href="#mfc51bdb7d7" x="313.644953" y="213.268386" style="fill-opacity: 0.6; stroke: #000000; stroke-opacity: 0.6; stroke-width: 0.8"/>
     <use xlink:href="#mfc51bdb7d7" x="325.544052" y="213.580166" style="fill-opacity: 0.6; stroke: #000000; stroke-opacity: 0.6; stroke-width: 0.8"/>
     <use xlink:href="#mfc51bdb7d7" x="328.19727" y="213.580166" style="fill-opacity: 0.6; stroke: #000000; stroke-opacity: 0.6; stroke-width: 0.8"/>
     <use xlink:href="#mfc51bdb7d7" x="320.234512" y="213.580166" style="fill-opacity: 0.6; stroke: #000000; stroke-opacity: 0.6; stroke-width: 0.8"/>
     <use xlink:href="#mfc51bdb7d7" x="320.918797" y="213.268386" style="fill-opacity: 0.6; stroke: #000000; stroke-opacity: 0.6; stroke-width: 0.8"/>
     <use xlink:href="#mfc51bdb7d7" x="321.006501" y="213.580166" style="fill-opacity: 0.6; stroke: #000000; stroke-opacity: 0.6; stroke-width: 0.8"/>
    </g>
   </g>
   <g id="matplotlib.axis_1">
    <g id="xtick_1">
     <g id="line2d_1">
      <defs>
       <path id="m5b0fabe14a" d="M 0 0 
L 0 -5 
" style="stroke: #000000; stroke-width: 1.1"/>
      </defs>
      <g>
       <use xlink:href="#m5b0fabe14a" x="79.292708" y="304.931655" style="stroke: #000000; stroke-width: 1.1"/>
      </g>
     </g>
     <g id="text_1">
      <!-- 1234 -->
      <g transform="translate(68.722567 343.484816) rotate(-45) scale(0.15 -0.15)">
       <defs>
        <path id="DejaVuSans-31" d="M 794 531 
L 1825 531 
L 1825 4091 
L 703 3866 
L 703 4441 
L 1819 4666 
L 2450 4666 
L 2450 531 
L 3481 531 
L 3481 0 
L 794 0 
L 794 531 
z
" transform="scale(0.015625)"/>
        <path id="DejaVuSans-32" d="M 1228 531 
L 3431 531 
L 3431 0 
L 469 0 
L 469 531 
Q 828 903 1448 1529 
Q 2069 2156 2228 2338 
Q 2531 2678 2651 2914 
Q 2772 3150 2772 3378 
Q 2772 3750 2511 3984 
Q 2250 4219 1831 4219 
Q 1534 4219 1204 4116 
Q 875 4013 500 3803 
L 500 4441 
Q 881 4594 1212 4672 
Q 1544 4750 1819 4750 
Q 2544 4750 2975 4387 
Q 3406 4025 3406 3419 
Q 3406 3131 3298 2873 
Q 3191 2616 2906 2266 
Q 2828 2175 2409 1742 
Q 1991 1309 1228 531 
z
" transform="scale(0.015625)"/>
        <path id="DejaVuSans-33" d="M 2597 2516 
Q 3050 2419 3304 2112 
Q 3559 1806 3559 1356 
Q 3559 666 3084 287 
Q 2609 -91 1734 -91 
Q 1441 -91 1130 -33 
Q 819 25 488 141 
L 488 750 
Q 750 597 1062 519 
Q 1375 441 1716 441 
Q 2309 441 2620 675 
Q 2931 909 2931 1356 
Q 2931 1769 2642 2001 
Q 2353 2234 1838 2234 
L 1294 2234 
L 1294 2753 
L 1863 2753 
Q 2328 2753 2575 2939 
Q 2822 3125 2822 3475 
Q 2822 3834 2567 4026 
Q 2313 4219 1838 4219 
Q 1578 4219 1281 4162 
Q 984 4106 628 3988 
L 628 4550 
Q 988 4650 1302 4700 
Q 1616 4750 1894 4750 
Q 2613 4750 3031 4423 
Q 3450 4097 3450 3541 
Q 3450 3153 3228 2886 
Q 3006 2619 2597 2516 
z
" transform="scale(0.015625)"/>
        <path id="DejaVuSans-34" d="M 2419 4116 
L 825 1625 
L 2419 1625 
L 2419 4116 
z
M 2253 4666 
L 3047 4666 
L 3047 1625 
L 3713 1625 
L 3713 1100 
L 3047 1100 
L 3047 0 
L 2419 0 
L 2419 1100 
L 313 1100 
L 313 1709 
L 2253 4666 
z
" transform="scale(0.015625)"/>
       </defs>
       <use xlink:href="#DejaVuSans-31"/>
       <use xlink:href="#DejaVuSans-32" x="63.623047"/>
       <use xlink:href="#DejaVuSans-33" x="127.246094"/>
       <use xlink:href="#DejaVuSans-34" x="190.869141"/>
      </g>
     </g>
    </g>
    <g id="xtick_2">
     <g id="line2d_2">
      <g>
       <use xlink:href="#m5b0fabe14a" x="127.734375" y="304.931655" style="stroke: #000000; stroke-width: 1.1"/>
      </g>
     </g>
     <g id="text_2">
      <!-- 1243 -->
      <g transform="translate(117.164233 343.484816) rotate(-45) scale(0.15 -0.15)">
       <use xlink:href="#DejaVuSans-31"/>
       <use xlink:href="#DejaVuSans-32" x="63.623047"/>
       <use xlink:href="#DejaVuSans-34" x="127.246094"/>
       <use xlink:href="#DejaVuSans-33" x="190.869141"/>
      </g>
     </g>
    </g>
    <g id="xtick_3">
     <g id="line2d_3">
      <g>
       <use xlink:href="#m5b0fabe14a" x="176.176042" y="304.931655" style="stroke: #000000; stroke-width: 1.1"/>
      </g>
     </g>
     <g id="text_3">
      <!-- 1324 -->
      <g transform="translate(165.6059 343.484816) rotate(-45) scale(0.15 -0.15)">
       <use xlink:href="#DejaVuSans-31"/>
       <use xlink:href="#DejaVuSans-33" x="63.623047"/>
       <use xlink:href="#DejaVuSans-32" x="127.246094"/>
       <use xlink:href="#DejaVuSans-34" x="190.869141"/>
      </g>
     </g>
    </g>
    <g id="xtick_4">
     <g id="line2d_4">
      <g>
       <use xlink:href="#m5b0fabe14a" x="224.617708" y="304.931655" style="stroke: #000000; stroke-width: 1.1"/>
      </g>
     </g>
     <g id="text_4">
      <!-- 1342 -->
      <g transform="translate(214.047567 343.484816) rotate(-45) scale(0.15 -0.15)">
       <use xlink:href="#DejaVuSans-31"/>
       <use xlink:href="#DejaVuSans-33" x="63.623047"/>
       <use xlink:href="#DejaVuSans-34" x="127.246094"/>
       <use xlink:href="#DejaVuSans-32" x="190.869141"/>
      </g>
     </g>
    </g>
    <g id="xtick_5">
     <g id="line2d_5">
      <g>
       <use xlink:href="#m5b0fabe14a" x="273.059375" y="304.931655" style="stroke: #000000; stroke-width: 1.1"/>
      </g>
     </g>
     <g id="text_5">
      <!-- 1423 -->
      <g transform="translate(262.489233 343.484816) rotate(-45) scale(0.15 -0.15)">
       <use xlink:href="#DejaVuSans-31"/>
       <use xlink:href="#DejaVuSans-34" x="63.623047"/>
       <use xlink:href="#DejaVuSans-32" x="127.246094"/>
       <use xlink:href="#DejaVuSans-33" x="190.869141"/>
      </g>
     </g>
    </g>
    <g id="xtick_6">
     <g id="line2d_6">
      <g>
       <use xlink:href="#m5b0fabe14a" x="321.501042" y="304.931655" style="stroke: #000000; stroke-width: 1.1"/>
      </g>
     </g>
     <g id="text_6">
      <!-- 1432 -->
      <g transform="translate(310.9309 343.484816) rotate(-45) scale(0.15 -0.15)">
       <use xlink:href="#DejaVuSans-31"/>
       <use xlink:href="#DejaVuSans-34" x="63.623047"/>
       <use xlink:href="#DejaVuSans-33" x="127.246094"/>
       <use xlink:href="#DejaVuSans-32" x="190.869141"/>
      </g>
     </g>
    </g>
   </g>
   <g id="matplotlib.axis_2">
    <g id="ytick_1">
     <g id="line2d_7">
      <path d="M 55.071875 304.931655 
L 345.721875 304.931655 
" clip-path="url(#pf4de6d2f78)" style="fill: none; stroke-dasharray: 2.96,1.28; stroke-dashoffset: 0; stroke: #b0b0b0; stroke-opacity: 0.3; stroke-width: 0.8"/>
     </g>
     <g id="line2d_8">
      <defs>
       <path id="m0ce988d2b7" d="M 0 0 
L 3.5 0 
" style="stroke: #000000; stroke-width: 1.1"/>
      </defs>
      <g>
       <use xlink:href="#m0ce988d2b7" x="55.071875" y="304.931655" style="stroke: #000000; stroke-width: 1.1"/>
      </g>
     </g>
     <g id="text_7">
      <!-- 0.0 -->
      <g transform="translate(27.717187 310.630483) scale(0.15 -0.15)">
       <defs>
        <path id="DejaVuSans-30" d="M 2034 4250 
Q 1547 4250 1301 3770 
Q 1056 3291 1056 2328 
Q 1056 1369 1301 889 
Q 1547 409 2034 409 
Q 2525 409 2770 889 
Q 3016 1369 3016 2328 
Q 3016 3291 2770 3770 
Q 2525 4250 2034 4250 
z
M 2034 4750 
Q 2819 4750 3233 4129 
Q 3647 3509 3647 2328 
Q 3647 1150 3233 529 
Q 2819 -91 2034 -91 
Q 1250 -91 836 529 
Q 422 1150 422 2328 
Q 422 3509 836 4129 
Q 1250 4750 2034 4750 
z
" transform="scale(0.015625)"/>
        <path id="DejaVuSans-2e" d="M 684 794 
L 1344 794 
L 1344 0 
L 684 0 
L 684 794 
z
" transform="scale(0.015625)"/>
       </defs>
       <use xlink:href="#DejaVuSans-30"/>
       <use xlink:href="#DejaVuSans-2e" x="63.623047"/>
       <use xlink:href="#DejaVuSans-30" x="95.410156"/>
      </g>
     </g>
    </g>
    <g id="ytick_2">
     <g id="line2d_9">
      <path d="M 55.071875 195.309868 
L 345.721875 195.309868 
" clip-path="url(#pf4de6d2f78)" style="fill: none; stroke-dasharray: 2.96,1.28; stroke-dashoffset: 0; stroke: #b0b0b0; stroke-opacity: 0.3; stroke-width: 0.8"/>
     </g>
     <g id="line2d_10">
      <g>
       <use xlink:href="#m0ce988d2b7" x="55.071875" y="195.309868" style="stroke: #000000; stroke-width: 1.1"/>
      </g>
     </g>
     <g id="text_8">
      <!-- 0.2 -->
      <g transform="translate(27.717187 201.008696) scale(0.15 -0.15)">
       <use xlink:href="#DejaVuSans-30"/>
       <use xlink:href="#DejaVuSans-2e" x="63.623047"/>
       <use xlink:href="#DejaVuSans-32" x="95.410156"/>
      </g>
     </g>
    </g>
    <g id="ytick_3">
     <g id="line2d_11">
      <path d="M 55.071875 85.688081 
L 345.721875 85.688081 
" clip-path="url(#pf4de6d2f78)" style="fill: none; stroke-dasharray: 2.96,1.28; stroke-dashoffset: 0; stroke: #b0b0b0; stroke-opacity: 0.3; stroke-width: 0.8"/>
     </g>
     <g id="line2d_12">
      <g>
       <use xlink:href="#m0ce988d2b7" x="55.071875" y="85.688081" style="stroke: #000000; stroke-width: 1.1"/>
      </g>
     </g>
     <g id="text_9">
      <!-- 0.4 -->
      <g transform="translate(27.717187 91.386909) scale(0.15 -0.15)">
       <use xlink:href="#DejaVuSans-30"/>
       <use xlink:href="#DejaVuSans-2e" x="63.623047"/>
       <use xlink:href="#DejaVuSans-34" x="95.410156"/>
      </g>
     </g>
    </g>
    <g id="text_10">
     <!-- Occurrence -->
     <g transform="translate(18.597656 210.782156) rotate(-90) scale(0.15 -0.15)">
      <defs>
       <path id="DejaVuSans-4f" d="M 2522 4238 
Q 1834 4238 1429 3725 
Q 1025 3213 1025 2328 
Q 1025 1447 1429 934 
Q 1834 422 2522 422 
Q 3209 422 3611 934 
Q 4013 1447 4013 2328 
Q 4013 3213 3611 3725 
Q 3209 4238 2522 4238 
z
M 2522 4750 
Q 3503 4750 4090 4092 
Q 4678 3434 4678 2328 
Q 4678 1225 4090 567 
Q 3503 -91 2522 -91 
Q 1538 -91 948 565 
Q 359 1222 359 2328 
Q 359 3434 948 4092 
Q 1538 4750 2522 4750 
z
" transform="scale(0.015625)"/>
       <path id="DejaVuSans-63" d="M 3122 3366 
L 3122 2828 
Q 2878 2963 2633 3030 
Q 2388 3097 2138 3097 
Q 1578 3097 1268 2742 
Q 959 2388 959 1747 
Q 959 1106 1268 751 
Q 1578 397 2138 397 
Q 2388 397 2633 464 
Q 2878 531 3122 666 
L 3122 134 
Q 2881 22 2623 -34 
Q 2366 -91 2075 -91 
Q 1284 -91 818 406 
Q 353 903 353 1747 
Q 353 2603 823 3093 
Q 1294 3584 2113 3584 
Q 2378 3584 2631 3529 
Q 2884 3475 3122 3366 
z
" transform="scale(0.015625)"/>
       <path id="DejaVuSans-75" d="M 544 1381 
L 544 3500 
L 1119 3500 
L 1119 1403 
Q 1119 906 1312 657 
Q 1506 409 1894 409 
Q 2359 409 2629 706 
Q 2900 1003 2900 1516 
L 2900 3500 
L 3475 3500 
L 3475 0 
L 2900 0 
L 2900 538 
Q 2691 219 2414 64 
Q 2138 -91 1772 -91 
Q 1169 -91 856 284 
Q 544 659 544 1381 
z
M 1991 3584 
L 1991 3584 
z
" transform="scale(0.015625)"/>
       <path id="DejaVuSans-72" d="M 2631 2963 
Q 2534 3019 2420 3045 
Q 2306 3072 2169 3072 
Q 1681 3072 1420 2755 
Q 1159 2438 1159 1844 
L 1159 0 
L 581 0 
L 581 3500 
L 1159 3500 
L 1159 2956 
Q 1341 3275 1631 3429 
Q 1922 3584 2338 3584 
Q 2397 3584 2469 3576 
Q 2541 3569 2628 3553 
L 2631 2963 
z
" transform="scale(0.015625)"/>
       <path id="DejaVuSans-65" d="M 3597 1894 
L 3597 1613 
L 953 1613 
Q 991 1019 1311 708 
Q 1631 397 2203 397 
Q 2534 397 2845 478 
Q 3156 559 3463 722 
L 3463 178 
Q 3153 47 2828 -22 
Q 2503 -91 2169 -91 
Q 1331 -91 842 396 
Q 353 884 353 1716 
Q 353 2575 817 3079 
Q 1281 3584 2069 3584 
Q 2775 3584 3186 3129 
Q 3597 2675 3597 1894 
z
M 3022 2063 
Q 3016 2534 2758 2815 
Q 2500 3097 2075 3097 
Q 1594 3097 1305 2825 
Q 1016 2553 972 2059 
L 3022 2063 
z
" transform="scale(0.015625)"/>
       <path id="DejaVuSans-6e" d="M 3513 2113 
L 3513 0 
L 2938 0 
L 2938 2094 
Q 2938 2591 2744 2837 
Q 2550 3084 2163 3084 
Q 1697 3084 1428 2787 
Q 1159 2491 1159 1978 
L 1159 0 
L 581 0 
L 581 3500 
L 1159 3500 
L 1159 2956 
Q 1366 3272 1645 3428 
Q 1925 3584 2291 3584 
Q 2894 3584 3203 3211 
Q 3513 2838 3513 2113 
z
" transform="scale(0.015625)"/>
      </defs>
      <use xlink:href="#DejaVuSans-4f"/>
      <use xlink:href="#DejaVuSans-63" x="78.710938"/>
      <use xlink:href="#DejaVuSans-63" x="133.691406"/>
      <use xlink:href="#DejaVuSans-75" x="188.671875"/>
      <use xlink:href="#DejaVuSans-72" x="252.050781"/>
      <use xlink:href="#DejaVuSans-72" x="291.414062"/>
      <use xlink:href="#DejaVuSans-65" x="330.277344"/>
      <use xlink:href="#DejaVuSans-6e" x="391.800781"/>
      <use xlink:href="#DejaVuSans-63" x="455.179688"/>
      <use xlink:href="#DejaVuSans-65" x="510.160156"/>
     </g>
    </g>
   </g>
   <g id="patch_3">
    <path d="M 67.182292 213.580166 
L 91.403125 213.580166 
L 91.403125 213.580166 
L 67.182292 213.580166 
L 67.182292 213.580166 
L 67.182292 213.580166 
z
" clip-path="url(#pf4de6d2f78)" style="fill: none; stroke: #000000; stroke-width: 1.3; stroke-linejoin: miter"/>
   </g>
   <g id="line2d_13">
    <path d="M 79.292708 213.580166 
L 79.292708 213.580166 
" clip-path="url(#pf4de6d2f78)" style="fill: none; stroke: #000000; stroke-width: 1.1; stroke-linecap: square"/>
   </g>
   <g id="line2d_14">
    <path d="M 79.292708 213.580166 
L 79.292708 213.580166 
" clip-path="url(#pf4de6d2f78)" style="fill: none; stroke: #000000; stroke-width: 1.1; stroke-linecap: square"/>
   </g>
   <g id="line2d_15">
    <path d="M 73.2375 213.580166 
L 85.347917 213.580166 
" clip-path="url(#pf4de6d2f78)" style="fill: none; stroke: #000000; stroke-width: 1.1; stroke-linecap: square"/>
   </g>
   <g id="line2d_16">
    <path d="M 73.2375 213.580166 
L 85.347917 213.580166 
" clip-path="url(#pf4de6d2f78)" style="fill: none; stroke: #000000; stroke-width: 1.1; stroke-linecap: square"/>
   </g>
   <g id="line2d_17">
    <defs>
     <path id="m30082aff38" d="M 0 2 
C 0.530406 2 1.03916 1.789267 1.414214 1.414214 
C 1.789267 1.03916 2 0.530406 2 0 
C 2 -0.530406 1.789267 -1.03916 1.414214 -1.414214 
C 1.03916 -1.789267 0.530406 -2 0 -2 
C -0.530406 -2 -1.03916 -1.789267 -1.414214 -1.414214 
C -1.789267 -1.03916 -2 -0.530406 -2 0 
C -2 0.530406 -1.789267 1.03916 -1.414214 1.414214 
C -1.03916 1.789267 -0.530406 2 0 2 
z
" style="stroke: #000000; stroke-opacity: 0.4"/>
    </defs>
    <g clip-path="url(#pf4de6d2f78)">
     <use xlink:href="#m30082aff38" x="79.292708" y="297.448939" style="fill-opacity: 0; stroke: #000000; stroke-opacity: 0.4"/>
     <use xlink:href="#m30082aff38" x="79.292708" y="215.139065" style="fill-opacity: 0; stroke: #000000; stroke-opacity: 0.4"/>
     <use xlink:href="#m30082aff38" x="79.292708" y="213.268386" style="fill-opacity: 0; stroke: #000000; stroke-opacity: 0.4"/>
     <use xlink:href="#m30082aff38" x="79.292708" y="213.268386" style="fill-opacity: 0; stroke: #000000; stroke-opacity: 0.4"/>
    </g>
   </g>
   <g id="patch_4">
    <path d="M 115.623958 213.580166 
L 139.844792 213.580166 
L 139.844792 213.268386 
L 115.623958 213.268386 
L 115.623958 213.580166 
L 115.623958 213.580166 
z
" clip-path="url(#pf4de6d2f78)" style="fill: none; stroke: #000000; stroke-width: 1.3; stroke-linejoin: miter"/>
   </g>
   <g id="line2d_18">
    <path d="M 127.734375 213.580166 
L 127.734375 213.580166 
" clip-path="url(#pf4de6d2f78)" style="fill: none; stroke: #000000; stroke-width: 1.1; stroke-linecap: square"/>
   </g>
   <g id="line2d_19">
    <path d="M 127.734375 213.268386 
L 127.734375 213.268386 
" clip-path="url(#pf4de6d2f78)" style="fill: none; stroke: #000000; stroke-width: 1.1; stroke-linecap: square"/>
   </g>
   <g id="line2d_20">
    <path d="M 121.679167 213.580166 
L 133.789583 213.580166 
" clip-path="url(#pf4de6d2f78)" style="fill: none; stroke: #000000; stroke-width: 1.1; stroke-linecap: square"/>
   </g>
   <g id="line2d_21">
    <path d="M 121.679167 213.268386 
L 133.789583 213.268386 
" clip-path="url(#pf4de6d2f78)" style="fill: none; stroke: #000000; stroke-width: 1.1; stroke-linecap: square"/>
   </g>
   <g id="line2d_22">
    <g clip-path="url(#pf4de6d2f78)">
     <use xlink:href="#m30082aff38" x="127.734375" y="129.087833" style="fill-opacity: 0; stroke: #000000; stroke-opacity: 0.4"/>
    </g>
   </g>
   <g id="patch_5">
    <path d="M 164.065625 213.580166 
L 188.286458 213.580166 
L 188.286458 213.346331 
L 164.065625 213.346331 
L 164.065625 213.580166 
L 164.065625 213.580166 
z
" clip-path="url(#pf4de6d2f78)" style="fill: none; stroke: #000000; stroke-width: 1.3; stroke-linejoin: miter"/>
   </g>
   <g id="line2d_23">
    <path d="M 176.176042 213.580166 
L 176.176042 213.580166 
" clip-path="url(#pf4de6d2f78)" style="fill: none; stroke: #000000; stroke-width: 1.1; stroke-linecap: square"/>
   </g>
   <g id="line2d_24">
    <path d="M 176.176042 213.346331 
L 176.176042 213.268386 
" clip-path="url(#pf4de6d2f78)" style="fill: none; stroke: #000000; stroke-width: 1.1; stroke-linecap: square"/>
   </g>
   <g id="line2d_25">
    <path d="M 170.120833 213.580166 
L 182.23125 213.580166 
" clip-path="url(#pf4de6d2f78)" style="fill: none; stroke: #000000; stroke-width: 1.1; stroke-linecap: square"/>
   </g>
   <g id="line2d_26">
    <path d="M 170.120833 213.268386 
L 182.23125 213.268386 
" clip-path="url(#pf4de6d2f78)" style="fill: none; stroke: #000000; stroke-width: 1.1; stroke-linecap: square"/>
   </g>
   <g id="line2d_27">
    <g clip-path="url(#pf4de6d2f78)">
     <use xlink:href="#m30082aff38" x="176.176042" y="215.139065" style="fill-opacity: 0; stroke: #000000; stroke-opacity: 0.4"/>
    </g>
   </g>
   <g id="patch_6">
    <path d="M 212.507292 213.580166 
L 236.728125 213.580166 
L 236.728125 213.268386 
L 212.507292 213.268386 
L 212.507292 213.580166 
L 212.507292 213.580166 
z
" clip-path="url(#pf4de6d2f78)" style="fill: none; stroke: #000000; stroke-width: 1.3; stroke-linejoin: miter"/>
   </g>
   <g id="line2d_28">
    <path d="M 224.617708 213.580166 
L 224.617708 213.580166 
" clip-path="url(#pf4de6d2f78)" style="fill: none; stroke: #000000; stroke-width: 1.1; stroke-linecap: square"/>
   </g>
   <g id="line2d_29">
    <path d="M 224.617708 213.268386 
L 224.617708 213.268386 
" clip-path="url(#pf4de6d2f78)" style="fill: none; stroke: #000000; stroke-width: 1.1; stroke-linecap: square"/>
   </g>
   <g id="line2d_30">
    <path d="M 218.5625 213.580166 
L 230.672917 213.580166 
" clip-path="url(#pf4de6d2f78)" style="fill: none; stroke: #000000; stroke-width: 1.1; stroke-linecap: square"/>
   </g>
   <g id="line2d_31">
    <path d="M 218.5625 213.268386 
L 230.672917 213.268386 
" clip-path="url(#pf4de6d2f78)" style="fill: none; stroke: #000000; stroke-width: 1.1; stroke-linecap: square"/>
   </g>
   <g id="line2d_32"/>
   <g id="patch_7">
    <path d="M 260.948958 213.580166 
L 285.169792 213.580166 
L 285.169792 213.580166 
L 260.948958 213.580166 
L 260.948958 213.580166 
L 260.948958 213.580166 
z
" clip-path="url(#pf4de6d2f78)" style="fill: none; stroke: #000000; stroke-width: 1.3; stroke-linejoin: miter"/>
   </g>
   <g id="line2d_33">
    <path d="M 273.059375 213.580166 
L 273.059375 213.580166 
" clip-path="url(#pf4de6d2f78)" style="fill: none; stroke: #000000; stroke-width: 1.1; stroke-linecap: square"/>
   </g>
   <g id="line2d_34">
    <path d="M 273.059375 213.580166 
L 273.059375 213.580166 
" clip-path="url(#pf4de6d2f78)" style="fill: none; stroke: #000000; stroke-width: 1.1; stroke-linecap: square"/>
   </g>
   <g id="line2d_35">
    <path d="M 267.004167 213.580166 
L 279.114583 213.580166 
" clip-path="url(#pf4de6d2f78)" style="fill: none; stroke: #000000; stroke-width: 1.1; stroke-linecap: square"/>
   </g>
   <g id="line2d_36">
    <path d="M 267.004167 213.580166 
L 279.114583 213.580166 
" clip-path="url(#pf4de6d2f78)" style="fill: none; stroke: #000000; stroke-width: 1.1; stroke-linecap: square"/>
   </g>
   <g id="line2d_37">
    <g clip-path="url(#pf4de6d2f78)">
     <use xlink:href="#m30082aff38" x="273.059375" y="215.139065" style="fill-opacity: 0; stroke: #000000; stroke-opacity: 0.4"/>
     <use xlink:href="#m30082aff38" x="273.059375" y="215.139065" style="fill-opacity: 0; stroke: #000000; stroke-opacity: 0.4"/>
     <use xlink:href="#m30082aff38" x="273.059375" y="213.268386" style="fill-opacity: 0; stroke: #000000; stroke-opacity: 0.4"/>
     <use xlink:href="#m30082aff38" x="273.059375" y="213.268386" style="fill-opacity: 0; stroke: #000000; stroke-opacity: 0.4"/>
    </g>
   </g>
   <g id="patch_8">
    <path d="M 309.390625 213.580166 
L 333.611458 213.580166 
L 333.611458 213.268386 
L 309.390625 213.268386 
L 309.390625 213.580166 
L 309.390625 213.580166 
z
" clip-path="url(#pf4de6d2f78)" style="fill: none; stroke: #000000; stroke-width: 1.3; stroke-linejoin: miter"/>
   </g>
   <g id="line2d_38">
    <path d="M 321.501042 213.580166 
L 321.501042 213.580166 
" clip-path="url(#pf4de6d2f78)" style="fill: none; stroke: #000000; stroke-width: 1.1; stroke-linecap: square"/>
   </g>
   <g id="line2d_39">
    <path d="M 321.501042 213.268386 
L 321.501042 213.268386 
" clip-path="url(#pf4de6d2f78)" style="fill: none; stroke: #000000; stroke-width: 1.1; stroke-linecap: square"/>
   </g>
   <g id="line2d_40">
    <path d="M 315.445833 213.580166 
L 327.55625 213.580166 
" clip-path="url(#pf4de6d2f78)" style="fill: none; stroke: #000000; stroke-width: 1.1; stroke-linecap: square"/>
   </g>
   <g id="line2d_41">
    <path d="M 315.445833 213.268386 
L 327.55625 213.268386 
" clip-path="url(#pf4de6d2f78)" style="fill: none; stroke: #000000; stroke-width: 1.1; stroke-linecap: square"/>
   </g>
   <g id="line2d_42"/>
   <g id="line2d_43">
    <path d="M 67.182292 213.580166 
L 91.403125 213.580166 
" clip-path="url(#pf4de6d2f78)" style="fill: none; stroke: #ff0000; stroke-width: 1.6"/>
   </g>
   <g id="line2d_44">
    <path d="M 115.623958 213.580166 
L 139.844792 213.580166 
" clip-path="url(#pf4de6d2f78)" style="fill: none; stroke: #ff0000; stroke-width: 1.6"/>
   </g>
   <g id="line2d_45">
    <path d="M 164.065625 213.580166 
L 188.286458 213.580166 
" clip-path="url(#pf4de6d2f78)" style="fill: none; stroke: #ff0000; stroke-width: 1.6"/>
   </g>
   <g id="line2d_46">
    <path d="M 212.507292 213.580166 
L 236.728125 213.580166 
" clip-path="url(#pf4de6d2f78)" style="fill: none; stroke: #ff0000; stroke-width: 1.6"/>
   </g>
   <g id="line2d_47">
    <path d="M 260.948958 213.580166 
L 285.169792 213.580166 
" clip-path="url(#pf4de6d2f78)" style="fill: none; stroke: #ff0000; stroke-width: 1.6"/>
   </g>
   <g id="line2d_48">
    <path d="M 309.390625 213.580166 
L 333.611458 213.580166 
" clip-path="url(#pf4de6d2f78)" style="fill: none; stroke: #ff0000; stroke-width: 1.6"/>
   </g>
   <g id="patch_9">
    <path d="M 55.071875 304.931655 
L 55.071875 30.877187 
" style="fill: none; stroke: #000000; stroke-width: 1.2; stroke-linejoin: miter; stroke-linecap: square"/>
   </g>
   <g id="patch_10">
    <path d="M 55.071875 304.931655 
L 345.721875 304.931655 
" style="fill: none; stroke: #000000; stroke-width: 1.2; stroke-linejoin: miter; stroke-linecap: square"/>
   </g>
   <g id="text_11">
    <!-- Homogeneous Coupling -->
    <g transform="translate(92.969219 20.877187) scale(0.18 -0.18)">
     <defs>
      <path id="DejaVuSans-48" d="M 628 4666 
L 1259 4666 
L 1259 2753 
L 3553 2753 
L 3553 4666 
L 4184 4666 
L 4184 0 
L 3553 0 
L 3553 2222 
L 1259 2222 
L 1259 0 
L 628 0 
L 628 4666 
z
" transform="scale(0.015625)"/>
      <path id="DejaVuSans-6f" d="M 1959 3097 
Q 1497 3097 1228 2736 
Q 959 2375 959 1747 
Q 959 1119 1226 758 
Q 1494 397 1959 397 
Q 2419 397 2687 759 
Q 2956 1122 2956 1747 
Q 2956 2369 2687 2733 
Q 2419 3097 1959 3097 
z
M 1959 3584 
Q 2709 3584 3137 3096 
Q 3566 2609 3566 1747 
Q 3566 888 3137 398 
Q 2709 -91 1959 -91 
Q 1206 -91 779 398 
Q 353 888 353 1747 
Q 353 2609 779 3096 
Q 1206 3584 1959 3584 
z
" transform="scale(0.015625)"/>
      <path id="DejaVuSans-6d" d="M 3328 2828 
Q 3544 3216 3844 3400 
Q 4144 3584 4550 3584 
Q 5097 3584 5394 3201 
Q 5691 2819 5691 2113 
L 5691 0 
L 5113 0 
L 5113 2094 
Q 5113 2597 4934 2840 
Q 4756 3084 4391 3084 
Q 3944 3084 3684 2787 
Q 3425 2491 3425 1978 
L 3425 0 
L 2847 0 
L 2847 2094 
Q 2847 2600 2669 2842 
Q 2491 3084 2119 3084 
Q 1678 3084 1418 2786 
Q 1159 2488 1159 1978 
L 1159 0 
L 581 0 
L 581 3500 
L 1159 3500 
L 1159 2956 
Q 1356 3278 1631 3431 
Q 1906 3584 2284 3584 
Q 2666 3584 2933 3390 
Q 3200 3197 3328 2828 
z
" transform="scale(0.015625)"/>
      <path id="DejaVuSans-67" d="M 2906 1791 
Q 2906 2416 2648 2759 
Q 2391 3103 1925 3103 
Q 1463 3103 1205 2759 
Q 947 2416 947 1791 
Q 947 1169 1205 825 
Q 1463 481 1925 481 
Q 2391 481 2648 825 
Q 2906 1169 2906 1791 
z
M 3481 434 
Q 3481 -459 3084 -895 
Q 2688 -1331 1869 -1331 
Q 1566 -1331 1297 -1286 
Q 1028 -1241 775 -1147 
L 775 -588 
Q 1028 -725 1275 -790 
Q 1522 -856 1778 -856 
Q 2344 -856 2625 -561 
Q 2906 -266 2906 331 
L 2906 616 
Q 2728 306 2450 153 
Q 2172 0 1784 0 
Q 1141 0 747 490 
Q 353 981 353 1791 
Q 353 2603 747 3093 
Q 1141 3584 1784 3584 
Q 2172 3584 2450 3431 
Q 2728 3278 2906 2969 
L 2906 3500 
L 3481 3500 
L 3481 434 
z
" transform="scale(0.015625)"/>
      <path id="DejaVuSans-73" d="M 2834 3397 
L 2834 2853 
Q 2591 2978 2328 3040 
Q 2066 3103 1784 3103 
Q 1356 3103 1142 2972 
Q 928 2841 928 2578 
Q 928 2378 1081 2264 
Q 1234 2150 1697 2047 
L 1894 2003 
Q 2506 1872 2764 1633 
Q 3022 1394 3022 966 
Q 3022 478 2636 193 
Q 2250 -91 1575 -91 
Q 1294 -91 989 -36 
Q 684 19 347 128 
L 347 722 
Q 666 556 975 473 
Q 1284 391 1588 391 
Q 1994 391 2212 530 
Q 2431 669 2431 922 
Q 2431 1156 2273 1281 
Q 2116 1406 1581 1522 
L 1381 1569 
Q 847 1681 609 1914 
Q 372 2147 372 2553 
Q 372 3047 722 3315 
Q 1072 3584 1716 3584 
Q 2034 3584 2315 3537 
Q 2597 3491 2834 3397 
z
" transform="scale(0.015625)"/>
      <path id="DejaVuSans-20" transform="scale(0.015625)"/>
      <path id="DejaVuSans-43" d="M 4122 4306 
L 4122 3641 
Q 3803 3938 3442 4084 
Q 3081 4231 2675 4231 
Q 1875 4231 1450 3742 
Q 1025 3253 1025 2328 
Q 1025 1406 1450 917 
Q 1875 428 2675 428 
Q 3081 428 3442 575 
Q 3803 722 4122 1019 
L 4122 359 
Q 3791 134 3420 21 
Q 3050 -91 2638 -91 
Q 1578 -91 968 557 
Q 359 1206 359 2328 
Q 359 3453 968 4101 
Q 1578 4750 2638 4750 
Q 3056 4750 3426 4639 
Q 3797 4528 4122 4306 
z
" transform="scale(0.015625)"/>
      <path id="DejaVuSans-70" d="M 1159 525 
L 1159 -1331 
L 581 -1331 
L 581 3500 
L 1159 3500 
L 1159 2969 
Q 1341 3281 1617 3432 
Q 1894 3584 2278 3584 
Q 2916 3584 3314 3078 
Q 3713 2572 3713 1747 
Q 3713 922 3314 415 
Q 2916 -91 2278 -91 
Q 1894 -91 1617 61 
Q 1341 213 1159 525 
z
M 3116 1747 
Q 3116 2381 2855 2742 
Q 2594 3103 2138 3103 
Q 1681 3103 1420 2742 
Q 1159 2381 1159 1747 
Q 1159 1113 1420 752 
Q 1681 391 2138 391 
Q 2594 391 2855 752 
Q 3116 1113 3116 1747 
z
" transform="scale(0.015625)"/>
      <path id="DejaVuSans-6c" d="M 603 4863 
L 1178 4863 
L 1178 0 
L 603 0 
L 603 4863 
z
" transform="scale(0.015625)"/>
      <path id="DejaVuSans-69" d="M 603 3500 
L 1178 3500 
L 1178 0 
L 603 0 
L 603 3500 
z
M 603 4863 
L 1178 4863 
L 1178 4134 
L 603 4134 
L 603 4863 
z
" transform="scale(0.015625)"/>
     </defs>
     <use xlink:href="#DejaVuSans-48"/>
     <use xlink:href="#DejaVuSans-6f" x="75.195312"/>
     <use xlink:href="#DejaVuSans-6d" x="136.376953"/>
     <use xlink:href="#DejaVuSans-6f" x="233.789062"/>
     <use xlink:href="#DejaVuSans-67" x="294.970703"/>
     <use xlink:href="#DejaVuSans-65" x="358.447266"/>
     <use xlink:href="#DejaVuSans-6e" x="419.970703"/>
     <use xlink:href="#DejaVuSans-65" x="483.349609"/>
     <use xlink:href="#DejaVuSans-6f" x="544.873047"/>
     <use xlink:href="#DejaVuSans-75" x="606.054688"/>
     <use xlink:href="#DejaVuSans-73" x="669.433594"/>
     <use xlink:href="#DejaVuSans-20" x="721.533203"/>
     <use xlink:href="#DejaVuSans-43" x="753.320312"/>
     <use xlink:href="#DejaVuSans-6f" x="823.144531"/>
     <use xlink:href="#DejaVuSans-75" x="884.326172"/>
     <use xlink:href="#DejaVuSans-70" x="947.705078"/>
     <use xlink:href="#DejaVuSans-6c" x="1011.181641"/>
     <use xlink:href="#DejaVuSans-69" x="1038.964844"/>
     <use xlink:href="#DejaVuSans-6e" x="1066.748047"/>
     <use xlink:href="#DejaVuSans-67" x="1130.126953"/>
    </g>
   </g>
  </g>
 </g>
 <defs>
  <clipPath id="pf4de6d2f78">
   <rect x="55.071875" y="30.877187" width="290.65" height="274.054468"/>
  </clipPath>
 </defs>
</svg>
